<?xml version="1.0" encoding="utf-8"?>
<!-- Svg Vector Icons : http://www.onlinewebfonts.com/icon -->
<!DOCTYPE svg PUBLIC "-//W3C//DTD SVG 1.1//EN" "http://www.w3.org/Graphics/SVG/1.1/DTD/svg11.dtd">
<svg version="1.1" xmlns="http://www.w3.org/2000/svg" xmlns:xlink="http://www.w3.org/1999/xlink" x="0px" y="0px" viewBox="0 0 1000 1000" enable-background="new 0 0 1000 1000" xml:space="preserve">
<metadata> Svg Vector Icons : http://www.onlinewebfonts.com/icon </metadata>
<g><path d="M500,990C229.4,990,10,770.6,10,500C10,229.3,229.4,10,500,10c270.6,0,490,219.3,490,490C990,770.6,770.6,990,500,990z M500,132.5C297.1,132.5,132.5,297,132.5,500c0,202.9,164.6,367.5,367.5,367.5c203,0,367.5-164.6,367.5-367.5C867.5,297,703,132.5,500,132.5L500,132.5z M561.3,745H438.8V561.3H255V438.8h183.7V255h122.5v183.8H745v122.5H561.3V745L561.3,745z"/></g>
</svg>