<?xml version="1.0" encoding="utf-8"?>
<!-- Svg Vector Icons : http://www.onlinewebfonts.com/icon -->
<!DOCTYPE svg PUBLIC "-//W3C//DTD SVG 1.1//EN" "http://www.w3.org/Graphics/SVG/1.1/DTD/svg11.dtd">
<svg version="1.1" xmlns="http://www.w3.org/2000/svg" xmlns:xlink="http://www.w3.org/1999/xlink" x="0px" y="0px" viewBox="0 0 1000 1000" enable-background="new 0 0 1000 1000" xml:space="preserve">
<metadata> Svg Vector Icons : http://www.onlinewebfonts.com/icon </metadata>
<g><path d="M990,498.1c-9.3,280.6-215.4,488.3-487.3,490.5C227,990.8,11,780.7,10,498.5C9,225.3,226.3,11.5,498.6,11.4C771.7,11.2,981.9,225.7,990,498.1z M930.2,507.3c13.5-229.2-200.2-439.5-422-439C269.5,68.8,76.2,256.7,66.2,488.6c-9.8,229.7,202.5,447.1,427.1,443.9C731.8,928.9,928.5,741.8,930.2,507.3z"/><path d="M260.2,480.7c35.8,20.5,64.1,45.1,87.4,75.4c38.6,50.2,75,44.8,116.7,1c69.1-72.6,141.6-142,212.1-213.3c16.7-16.8,35.8-38.4,57.1-18.2c21.1,20,2.4,38.8-15.6,56.3c-91.7,89.5-183.2,179.3-272,271.7c-27.4,28.5-45.8,33.4-74,3.2c-41-43.9-84.8-85.1-127.7-127c-9.8-9.6-19-19-7.6-32C242.9,490.6,252.3,486.2,260.2,480.7z"/></g>
</svg>