<?xml version="1.0" encoding="utf-8"?>
<!-- Svg Vector Icons : http://www.onlinewebfonts.com/icon -->
<!DOCTYPE svg PUBLIC "-//W3C//DTD SVG 1.1//EN" "http://www.w3.org/Graphics/SVG/1.1/DTD/svg11.dtd">
<svg version="1.1" xmlns="http://www.w3.org/2000/svg" xmlns:xlink="http://www.w3.org/1999/xlink" x="0px" y="0px" viewBox="0 0 1000 1000" enable-background="new 0 0 1000 1000" xml:space="preserve">
<metadata> Svg Vector Icons : http://www.onlinewebfonts.com/icon </metadata>
<g><g transform="translate(0.000000,511.000000) scale(0.100000,-0.100000)"><path d="M4259.7,4988.1c-266.1-68.7-532.1-287.5-656.6-545c-66.5-135.2-73-163.1-79.4-407.7l-8.6-263.9H2126.9c-1345.4,0-1388.3-2.1-1457-42.9c-199.6-122.3-201.7-412-2.1-519.3c62.2-32.2,124.4-38.6,442-38.6H1481V-809.7V-4790h3519h3519v3980.3v3980.4h371.2c317.6,0,379.8,6.4,442,38.6c199.6,107.3,197.4,397-2.1,519.3c-68.7,40.8-111.6,42.9-1459.1,42.9H6480.6v221c0,259.6-38.6,399.1-163.1,585.8c-96.6,145.9-248.9,270.4-437.7,360.5l-139.5,66.5l-686.6,4.3C4562.3,5011.7,4337,5005.3,4259.7,4988.1z M5746.7,4365.9c103-55.8,133-148.1,133-390.5v-203.9H5000h-879.8v203.9c0,291.8,36.5,364.8,212.4,420.6c30,8.6,345.5,15,699.5,12.9C5609.4,4404.5,5682.3,4400.2,5746.7,4365.9z M7918.2-498.5v-3669.2H5000H2081.8v3669.2v3669.2H5000h2918.2V-498.5z"/><path d="M3068.8-552.2v-3165h300.4h300.4v3165v3165h-300.4h-300.4V-552.2z"/><path d="M4699.6-552.2v-3165H5000h300.4v3165v3165H5000h-300.4V-552.2z"/><path d="M6330.4-552.2v-3165h300.4h300.4v3165v3165h-300.4h-300.4V-552.2z"/></g></g>
</svg>